HIERARCHY
ROOT pelvis
{
  OFFSET 0 100 0
  CHANNELS 6 Xposition Yposition Zposition Zrotation Xrotation Yrotation
  JOINT pelvis_right_femur
  {
    OFFSET -10.78128 -3.44521 -0.5502486
    CHANNELS 3 Zrotation Xrotation Yrotation
    JOINT right_femur_tibia
    {
      OFFSET -0.8047443 -44.0398 -0.1307829
      CHANNELS 3 Zrotation Xrotation Yrotation
      JOINT right_tibia_foot
      {
        OFFSET 3.006224 -47.83518 -5
        CHANNELS 3 Zrotation Xrotation Yrotation
        End Site
        {
          OFFSET 0 -5 15
        }
      }
    }
  }
  JOINT pelvis_left_femur
  {
    OFFSET 10.78128 -3.44521 -0.5502486
    CHANNELS 3 Zrotation Xrotation Yrotation
    JOINT left_femur_tibia
    {
      OFFSET 0.8047443 -44.0398 -0.1307829
      CHANNELS 3 Zrotation Xrotation Yrotation
      JOINT left_tibia_foot
      {
        OFFSET -4.370144 -48.10324 -4.275266
        CHANNELS 3 Zrotation Xrotation Yrotation
        End Site
        {
          OFFSET 0 -5 15
        }
      }
    }
  }
  JOINT pelvis_spine1
  {
    OFFSET 0 6.468898 -3.129235
    CHANNELS 3 Zrotation Xrotation Yrotation
    JOINT spine1
    {
      OFFSET 0 23.15396 4.99043
      CHANNELS 3 Zrotation Xrotation Yrotation
      JOINT spine2
      {
        OFFSET 0 20.79997 -5.064912
        CHANNELS 3 Zrotation Xrotation Yrotation
        JOINT neck
        {
          OFFSET 0 14.38658 9.616178
          CHANNELS 3 Zrotation Xrotation Yrotation
          End Site
          {
            OFFSET 0 20 0
          }
        }
      }
      JOINT right_manubrium
      {
        OFFSET -5.722621 16.35077 3.967754
        CHANNELS 3 Zrotation Xrotation Yrotation
        JOINT right_clavicle
        {
          OFFSET -13.16364 1.694482 -4.693211
          CHANNELS 3 Zrotation Xrotation Yrotation
          JOINT right_humerus
          {
            OFFSET -28.5034 -0.3100689 -2.792744
            CHANNELS 3 Zrotation Xrotation Yrotation
            JOINT right_radius
            {
              OFFSET -25.15693 0.02248979 -1.271978
              CHANNELS 3 Zrotation Xrotation Yrotation
              End Site
              {
                OFFSET -15 0 0
              }
            }
          }
        }
      }
      JOINT left_manubrium
      {
        OFFSET 5.722621 16.35077 3.967754
        CHANNELS 3 Zrotation Xrotation Yrotation
        JOINT left_clavicle
        {
          OFFSET 13.16364 1.694482 -4.693211
          CHANNELS 3 Zrotation Xrotation Yrotation
          JOINT left_humerus
          {
            OFFSET 29.39168 -1.063119 -2.237045
            CHANNELS 3 Zrotation Xrotation Yrotation
            JOINT left_radius
            {
              OFFSET 24.59957 -0.9528479 0.9047498
              CHANNELS 3 Zrotation Xrotation Yrotation
              End Site
              {
                OFFSET 15 -0 -0
              }
            }
          }
        }
      }
    }
  }
}
MOTION
Frames: 7
Frame Time: 0.0416666666667
-375.747 106.3645 -380.9051 11.34941 -1.402089 84.75085 5.639853 -9.274701 -3.385546 -0 16.35088 -0 -13.46598 4.901075 -1.601414 -3.70336 8.489582 -7.667593 -0 36.73033 -0 3.901257 -10.77186 19.72424 0.7998345 -2.608235 3.429895 0.256468 14.39933 -5.919994 2.910184 25.03063 3.712689 0.9696019 -19.89046 7.716517 -6.429269 -21.13519 11.30553 98.58298 10.35767 -19.62683 -0 0 6.271429 -22.51592 8.59989 8.712667 5.7114 -26.36538 -7.797482 -88.00371 12.84518 13.82508 0 0 -19.78669 18.5937 18.44179 -9.139044
-369.9952 107.031 -380.0731 12.02241 -1.56237 84.146 5.935933 -6.781168 -3.088391 -0 16.85852 -0 -13.67557 3.976679 -2.003872 -3.29976 6.684187 -7.308758 -0 39.77356 -0 3.629939 -9.426414 19.58558 0.9996496 -2.691591 3.706353 0.05084402 14.71851 -5.782706 3.0261 25.0937 3.312896 0.7481226 -19.4136 7.495825 -6.697138 -21.53454 11.32537 98.76434 9.887269 -19.24419 -0 0 7.021385 -22.709 9.00363 8.775652 5.260569 -26.16745 -8.045843 -88.25991 12.98462 14.81009 0 0 -19.05909 17.8255 18.70707 -8.260698
-364.3309 107.8351 -379.2029 12.47891 -1.771878 83.4909 6.214163 -4.338673 -2.658939 -0 17.42767 -0 -13.74497 2.845467 -2.355449 -2.823967 4.551844 -7.034692 -0 41.85656 -0 3.46881 -8.120804 19.47913 1.165942 -2.735178 4.015066 -0.09934518 15.03513 -5.668729 3.095859 25.01294 2.962528 0.5498875 -19.09148 7.287717 -6.771385 -22.07468 11.3789 98.65778 9.766907 -18.69718 -0 0 8.146034 -22.81123 9.51907 8.975995 4.825655 -25.85641 -8.198678 -88.65833 13.0987 16.15911 0 0 -18.07104 16.98572 18.84172 -7.263804
-358.7662 108.7053 -378.3221 12.76458 -2.011375 82.7947 6.446333 -1.935892 -2.171055 -0 17.92227 -0 -13.66649 1.631385 -2.640302 -2.2807 2.201584 -6.771154 -0 42.732 -0 3.455194 -6.908113 19.42792 1.296137 -2.769133 4.348811 -0.2068358 15.37247 -5.582787 3.118891 24.79728 2.65331 0.3639318 -18.89378 7.081957 -6.715676 -22.78118 11.46095 98.33194 9.864798 -17.9917 -0 0 9.59404 -22.93391 10.14269 9.34863 4.429769 -25.49914 -8.283048 -89.14288 13.07522 17.77732 0 0 -16.92824 16.17188 18.84215 -6.27973
-353.2944 109.5652 -377.456 12.91426 -2.266082 82.06562 6.612898 0.4408331 -1.668317 -0 18.3186 -0 -13.43529 0.3900083 -2.85758 -1.684261 -0.2232882 -6.496871 -0 42.2002 -0 3.594427 -5.834079 19.4529 1.391714 -2.824189 4.693097 -0.2816184 15.72569 -5.525772 3.098597 24.46646 2.376792 0.1781906 -18.79283 6.877066 -6.576907 -23.65664 11.55907 97.84191 10.07711 -17.13715 -0 0 11.3174 -23.1303 10.85011 9.894885 4.088195 -25.12704 -8.31106 -89.67719 12.8764 19.58125 0 0 -15.68711 15.43193 18.73512 -5.383351
-347.9015 110.3426 -376.6267 12.94913 -2.52838 81.31101 6.703824 2.790028 -1.168201 -0 18.69891 -0 -13.05799 -0.8794384 -3.013913 -1.063593 -2.561346 -6.243381 -0 40.1627 -0 3.858411 -4.93403 19.56966 1.459006 -2.92191 5.025824 -0.3289617 16.06247 -5.492364 3.04292 24.0517 2.126943 -0.01820275 -18.76991 6.682403 -6.38342 -24.67509 11.65538 97.22721 10.33156 -16.14604 -0 0 13.26323 -23.38996 11.59394 10.57997 3.810262 -24.73524 -8.277593 -90.25316 12.53125 21.50054 0 0 -14.34539 14.77627 18.56901 -4.604765
-342.5752 110.9781 -375.8524 12.88603 -2.796111 80.53756 6.716508 5.093255 -0.6716471 -0 19.21785 -0 -12.55835 -2.211211 -3.120123 -0.4644825 -4.65205 -6.081748 -0 36.66772 -0 4.192856 -4.231435 19.79104 1.506824 -3.069315 5.319584 -0.3513581 16.33148 -5.46957 2.965434 23.59752 1.89968 -0.2334532 -18.81117 6.51632 -6.152344 -25.78168 11.72841 96.51929 10.57857 -15.0351 -0 0 15.36268 -23.65059 12.30793 11.33541 3.60052 -24.29299 -8.166058 -90.88699 12.11776 23.46819 0 0 -12.85684 14.19312 18.40578 -3.945395
